<svg width="413" height="486" viewBox="0 0 413 486" fill="none" xmlns="http://www.w3.org/2000/svg">
<g clip-path="url(#clip0)">
<path d="M206.49 77.3897C214.149 77.4027 221.801 77.8467 229.41 78.7197V41.7197H183.58V78.7197C191.185 77.8397 198.834 77.389 206.49 77.3697V77.3897Z" fill="white"/>
<path d="M256.66 4.08008H156.33C151.823 4.08008 148.17 7.73343 148.17 12.2401V33.5401C148.17 38.0467 151.823 41.7001 156.33 41.7001H256.66C261.167 41.7001 264.82 38.0467 264.82 33.5401V12.2401C264.82 7.73343 261.167 4.08008 256.66 4.08008Z" fill="#D0E8FA"/>
<path d="M349.339 422.237C428.229 343.347 428.229 215.442 349.339 136.552C270.45 57.6623 142.544 57.6623 63.6537 136.552C-15.2362 215.442 -15.2361 343.347 63.6537 422.237C142.544 501.127 270.45 501.127 349.339 422.237Z" fill="#F8F9FF"/>
<path d="M371.318 300.547C383.353 208.899 318.813 124.847 227.165 112.813C135.517 100.778 51.4655 165.318 39.4308 256.966C27.3962 348.614 91.9358 432.666 183.584 444.7C275.232 456.735 359.284 392.195 371.318 300.547Z" fill="#F8F9FF"/>
<path d="M374.12 279.4C374.124 312.554 364.296 344.965 345.88 372.534C327.464 400.102 301.286 421.591 270.658 434.282C240.029 446.973 206.324 450.297 173.807 443.833C141.289 437.369 111.418 421.407 87.9723 397.966C64.526 374.526 48.5572 344.659 42.0853 312.143C35.6134 279.626 38.929 245.921 51.6129 215.289C64.2967 184.657 85.7792 158.475 113.343 140.052C140.907 121.629 173.316 111.794 206.47 111.79V279.4L325.03 160.9C340.614 176.445 352.973 194.916 361.398 215.252C369.822 235.588 374.146 257.388 374.12 279.4Z" fill="white"/>
<path d="M288.34 197.49L209.99 254.41C204.493 253.634 198.893 254.686 194.052 257.404C189.212 260.123 185.398 264.357 183.2 269.455C181.002 274.553 180.54 280.232 181.885 285.618C183.231 291.005 186.31 295.799 190.648 299.264C194.985 302.729 200.342 304.673 205.892 304.795C211.442 304.918 216.879 303.212 221.366 299.942C225.852 296.672 229.139 292.017 230.721 286.696C232.303 281.374 232.092 275.68 230.12 270.49L288.34 197.49Z" fill="#D0E8FA"/>
<path d="M367.71 98.8996L392.42 123.62C393.035 124.233 393.524 124.962 393.857 125.764C394.19 126.566 394.361 127.426 394.361 128.295C394.361 129.164 394.19 130.024 393.857 130.826C393.524 131.628 393.035 132.357 392.42 132.97L391.34 133.99C390.726 134.604 389.997 135.091 389.195 135.424C388.393 135.756 387.533 135.927 386.665 135.927C385.797 135.927 384.937 135.756 384.135 135.424C383.333 135.091 382.604 134.604 381.99 133.99L357.34 109.28C356.102 108.037 355.406 106.354 355.406 104.6C355.406 102.846 356.102 101.163 357.34 99.9196L358.34 98.8996C359.583 97.6582 361.268 96.9609 363.025 96.9609C364.782 96.9609 366.467 97.6582 367.71 98.8996Z" fill="#D0E8FA"/>
<path d="M187.59 8.16H222.81C223.892 8.16 224.93 7.73014 225.695 6.96499C226.46 6.19985 226.89 5.16208 226.89 4.08C226.89 2.99792 226.46 1.96015 225.695 1.195C224.93 0.429855 223.892 0 222.81 0H187.59C186.508 0 185.47 0.429855 184.705 1.195C183.94 1.96015 183.51 2.99792 183.51 4.08C183.51 5.16208 183.94 6.19985 184.705 6.96499C185.47 7.73014 186.508 8.16 187.59 8.16Z" fill="#23242B"/>
<path d="M206.49 107.71C172.528 107.71 139.33 117.781 111.092 136.649C82.8546 155.517 60.8461 182.335 47.8501 213.712C34.854 245.088 31.4542 279.614 38.0805 312.923C44.7067 346.231 61.0615 376.827 85.0766 400.841C109.091 424.854 139.688 441.207 172.997 447.832C206.306 454.456 240.832 451.054 272.207 438.056C303.583 425.059 330.4 403.049 349.266 374.81C368.133 346.571 378.202 313.371 378.2 279.41C378.15 233.886 360.042 190.241 327.851 158.052C295.66 125.862 252.014 107.758 206.49 107.71ZM206.49 442.96C174.143 442.96 142.522 433.368 115.626 415.397C88.7312 397.426 67.7686 371.883 55.3899 341.998C43.0111 312.113 39.7723 279.229 46.0829 247.503C52.3935 215.777 67.9702 186.636 90.843 163.763C113.715 140.89 142.857 125.313 174.583 119.003C206.308 112.692 239.193 115.931 269.078 128.309C298.963 140.688 324.506 161.651 342.477 188.546C360.448 215.442 370.04 247.063 370.04 279.41C369.987 322.769 352.739 364.337 322.078 394.995C291.418 425.654 249.849 442.9 206.49 442.95V442.96Z" fill="#23242B"/>
<path d="M206.49 149.73C208.616 149.73 210.695 149.1 212.463 147.918C214.23 146.737 215.608 145.058 216.422 143.094C217.236 141.13 217.448 138.968 217.034 136.883C216.619 134.797 215.595 132.882 214.092 131.379C212.588 129.875 210.673 128.851 208.587 128.437C206.502 128.022 204.341 128.235 202.376 129.048C200.412 129.862 198.733 131.24 197.552 133.008C196.371 134.775 195.74 136.854 195.74 138.98C195.74 141.831 196.873 144.565 198.889 146.581C200.905 148.597 203.639 149.73 206.49 149.73Z" fill="#23242B"/>
<path d="M107.21 169.37C109.336 169.37 111.415 170 113.182 171.182C114.95 172.363 116.328 174.042 117.142 176.006C117.955 177.97 118.168 180.132 117.753 182.217C117.339 184.303 116.315 186.218 114.811 187.721C113.308 189.225 111.392 190.249 109.307 190.663C107.222 191.078 105.06 190.865 103.096 190.052C101.132 189.238 99.4529 187.86 98.2717 186.092C97.0904 184.325 96.46 182.246 96.46 180.12C96.46 177.269 97.5926 174.535 99.6086 172.519C101.625 170.503 104.359 169.37 107.21 169.37Z" fill="#23242B"/>
<path d="M66.0898 268.65C68.216 268.65 70.2944 269.281 72.0622 270.462C73.8301 271.643 75.2079 273.322 76.0215 275.286C76.8352 277.25 77.0481 279.412 76.6333 281.497C76.2185 283.583 75.1947 285.498 73.6912 287.001C72.1878 288.505 70.2724 289.529 68.1872 289.943C66.1019 290.358 63.9403 290.145 61.976 289.332C60.0117 288.518 58.3328 287.14 57.1515 285.372C55.9703 283.605 55.3398 281.526 55.3398 279.4C55.3385 277.988 55.6157 276.589 56.1555 275.285C56.6952 273.98 57.487 272.794 58.4855 271.796C59.484 270.797 60.6696 270.005 61.9744 269.466C63.2793 268.926 64.6778 268.649 66.0898 268.65Z" fill="#23242B"/>
<path d="M107.21 367.9C109.336 367.9 111.415 368.53 113.182 369.712C114.95 370.893 116.328 372.572 117.142 374.536C117.955 376.5 118.168 378.662 117.753 380.747C117.339 382.832 116.315 384.748 114.811 386.251C113.308 387.755 111.392 388.779 109.307 389.193C107.222 389.608 105.06 389.395 103.096 388.582C101.132 387.768 99.4529 386.39 98.2717 384.622C97.0904 382.854 96.46 380.776 96.46 378.65C96.46 375.799 97.5926 373.065 99.6086 371.048C101.625 369.032 104.359 367.9 107.21 367.9Z" fill="#23242B"/>
<path d="M206.49 409.06C204.364 409.06 202.285 409.691 200.517 410.872C198.749 412.054 197.371 413.734 196.558 415.699C195.744 417.663 195.532 419.825 195.948 421.911C196.363 423.997 197.388 425.912 198.892 427.415C200.397 428.918 202.313 429.941 204.399 430.355C206.485 430.768 208.647 430.554 210.611 429.739C212.575 428.924 214.253 427.544 215.433 425.775C216.613 424.006 217.242 421.927 217.24 419.8C217.235 416.952 216.1 414.221 214.085 412.208C212.07 410.195 209.339 409.063 206.49 409.06Z" fill="#23242B"/>
<path d="M305.77 367.9C307.896 367.9 309.975 368.53 311.742 369.712C313.51 370.893 314.888 372.572 315.702 374.536C316.515 376.5 316.728 378.662 316.313 380.747C315.899 382.832 314.875 384.748 313.371 386.251C311.868 387.755 309.953 388.779 307.867 389.193C305.782 389.608 303.62 389.395 301.656 388.582C299.692 387.768 298.013 386.39 296.832 384.622C295.651 382.854 295.02 380.776 295.02 378.65C295.02 375.799 296.153 373.065 298.169 371.048C300.185 369.032 302.919 367.9 305.77 367.9Z" fill="#23242B"/>
<path d="M346.89 268.66C344.764 268.66 342.685 269.291 340.917 270.472C339.149 271.654 337.771 273.334 336.957 275.298C336.144 277.263 335.932 279.425 336.347 281.511C336.763 283.596 337.788 285.512 339.292 287.015C340.797 288.518 342.713 289.541 344.799 289.955C346.885 290.368 349.047 290.154 351.011 289.339C352.975 288.524 354.653 287.144 355.833 285.375C357.013 283.606 357.642 281.527 357.64 279.4C357.64 276.552 356.509 273.82 354.494 271.806C352.48 269.792 349.749 268.66 346.9 268.66H346.89Z" fill="#23242B"/>
<path d="M305.77 169.37C307.896 169.37 309.975 170 311.742 171.182C313.51 172.363 314.888 174.042 315.702 176.006C316.515 177.97 316.728 180.132 316.313 182.217C315.899 184.303 314.875 186.218 313.371 187.721C311.868 189.225 309.953 190.249 307.867 190.663C305.782 191.078 303.62 190.865 301.656 190.052C299.692 189.238 298.013 187.86 296.832 186.092C295.651 184.325 295.02 182.246 295.02 180.12C295.02 177.269 296.153 174.535 298.169 172.519C300.185 170.503 302.919 169.37 305.77 169.37Z" fill="#23242B"/>
<path d="M285.92 194.2L208.84 250.2C208.07 250.14 207.29 250.08 206.49 250.08C200.671 250.064 194.978 251.774 190.131 254.994C185.284 258.214 181.5 262.799 179.259 268.17C177.018 273.54 176.42 279.454 177.541 285.165C178.661 290.875 181.45 296.125 185.554 300.25C189.658 304.375 194.894 307.19 200.598 308.34C206.303 309.49 212.22 308.922 217.602 306.708C222.983 304.494 227.588 300.735 230.832 295.904C234.077 291.073 235.816 285.389 235.83 279.57C235.83 276.779 235.439 274.002 234.67 271.32L291.51 200.06C292.132 199.289 292.452 198.317 292.41 197.328C292.368 196.338 291.968 195.397 291.283 194.681C290.599 193.965 289.677 193.522 288.69 193.435C287.704 193.349 286.719 193.624 285.92 194.21V194.2ZM206.49 300.58C202.302 300.58 198.207 299.338 194.724 297.011C191.241 294.684 188.527 291.377 186.923 287.507C185.32 283.638 184.9 279.38 185.716 275.272C186.533 271.163 188.549 267.389 191.51 264.427C194.471 261.464 198.244 259.446 202.352 258.628C206.46 257.81 210.718 258.228 214.588 259.829C218.459 261.431 221.767 264.144 224.096 267.626C226.424 271.107 227.668 275.201 227.67 279.39C227.662 285.006 225.429 290.389 221.459 294.361C217.489 298.333 212.106 300.569 206.49 300.58ZM230.83 263.05C227.866 258.665 223.776 255.159 218.99 252.9L266.34 218.51L230.83 263.05Z" fill="#23242B"/>
<path d="M357.64 139.5L369.64 127.5L379.11 136.97C380.102 137.963 381.279 138.75 382.576 139.287C383.872 139.825 385.262 140.101 386.665 140.101C388.068 140.101 389.458 139.825 390.754 139.287C392.05 138.75 393.228 137.963 394.22 136.97L395.34 135.9C397.343 133.894 398.468 131.175 398.468 128.34C398.468 125.505 397.343 122.786 395.34 120.78L370.63 96.05C368.618 94.0507 365.896 92.9286 363.06 92.9286C360.223 92.9286 357.502 94.0507 355.49 96.05L354.49 97.11C353.497 98.1027 352.709 99.2813 352.172 100.578C351.634 101.876 351.358 103.266 351.358 104.67C351.358 106.074 351.634 107.464 352.172 108.762C352.709 110.059 353.497 111.237 354.49 112.23L363.96 121.7L352.05 133.61C320.041 101.597 278.363 81.0414 233.48 75.13V45.78H256.67C258.277 45.78 259.869 45.4634 261.354 44.8483C262.839 44.2332 264.188 43.3316 265.325 42.195C266.461 41.0584 267.363 39.7091 267.978 38.224C268.593 36.739 268.91 35.1474 268.91 33.54V12.24C268.91 10.6326 268.593 9.04098 267.978 7.55595C267.363 6.07093 266.461 4.7216 265.325 3.58501C264.188 2.44842 262.839 1.54683 261.354 0.931714C259.869 0.316596 258.277 0 256.67 0H239.43C238.894 -1.1291e-08 238.364 0.105532 237.869 0.310571C237.374 0.51561 236.924 0.81614 236.545 1.195C236.166 1.57387 235.866 2.02364 235.66 2.51865C235.455 3.01366 235.35 3.54421 235.35 4.08C235.35 4.61579 235.455 5.14634 235.66 5.64135C235.866 6.13636 236.166 6.58613 236.545 6.96499C236.924 7.34386 237.374 7.64439 237.869 7.84943C238.364 8.05447 238.894 8.16 239.43 8.16H256.67C257.752 8.16 258.79 8.58985 259.555 9.355C260.32 10.1202 260.75 11.1579 260.75 12.24V33.54C260.75 34.6221 260.32 35.6598 259.555 36.425C258.79 37.1901 257.752 37.62 256.67 37.62H156.34C155.258 37.62 154.22 37.1901 153.455 36.425C152.69 35.6598 152.26 34.6221 152.26 33.54V12.24C152.26 11.1579 152.69 10.1202 153.455 9.355C154.22 8.58985 155.258 8.16 156.34 8.16H171.34C172.422 8.16 173.46 7.73014 174.225 6.96499C174.99 6.19985 175.42 5.16208 175.42 4.08C175.42 2.99792 174.99 1.96015 174.225 1.195C173.46 0.429855 172.422 0 171.34 0H156.34C153.094 0 149.98 1.28957 147.685 3.58501C145.389 5.88046 144.1 8.99375 144.1 12.24V33.54C144.1 35.1474 144.416 36.739 145.032 38.224C145.647 39.7091 146.548 41.0584 147.685 42.195C149.98 44.4904 153.094 45.78 156.34 45.78H179.51V75.15C66.5099 89.97 -13.0101 193.55 1.79991 306.52C16.6099 419.49 120.17 499.04 233.14 484.23C346.11 469.42 425.66 365.83 410.84 252.9C405.287 210.5 386.697 170.873 357.64 139.5ZM359.46 104.65C359.46 104.317 359.526 103.987 359.655 103.68C359.784 103.372 359.972 103.094 360.21 102.86L361.27 101.8C361.747 101.33 362.39 101.066 363.06 101.066C363.73 101.066 364.373 101.33 364.85 101.8L389.57 126.52C390.041 126.999 390.305 127.643 390.305 128.315C390.305 128.987 390.041 129.631 389.57 130.11L388.5 131.17C388.016 131.632 387.373 131.889 386.705 131.889C386.036 131.889 385.394 131.632 384.91 131.17L360.2 106.45C359.967 106.212 359.783 105.931 359.66 105.622C359.536 105.313 359.475 104.983 359.48 104.65H359.46ZM187.66 45.78H225.34V74.21C219.14 73.64 212.86 73.31 206.51 73.31C200.16 73.31 193.88 73.64 187.68 74.21L187.66 45.78ZM206.49 477.33C97.1799 477.33 8.55991 388.71 8.55991 279.4C8.55991 170.09 97.1799 81.47 206.49 81.47C315.8 81.47 404.42 170.08 404.42 279.4C404.42 388.72 315.75 477.21 206.49 477.33Z" fill="#23242B"/>
</g>
<defs>
<clipPath id="clip0">
<rect width="413" height="486" fill="white"/>
</clipPath>
</defs>
</svg>
