<svg width="24" height="22" viewBox="0 0 24 22" fill="none" xmlns="http://www.w3.org/2000/svg">
<path d="M21.2069 6.66848C22.4299 6.66848 23.425 5.68391 23.425 4.47356C23.3085 1.56359 19.1047 1.56434 18.989 4.47356C18.9887 5.68391 19.9836 6.66848 21.2069 6.66848ZM23.2782 8.54238H19.3786C19.5044 8.76639 19.5683 9.02141 19.564 9.27843V15.8409C19.5791 16.5147 19.4931 17.1869 19.3088 17.8356C19.2512 18.0315 19.1863 18.2252 19.1143 18.4164C19.5079 18.5564 19.9169 18.6272 20.3343 18.6269C22.3642 18.6269 24 17.0078 24 15.0179V9.25693C23.9999 9.0675 23.9238 8.88587 23.7885 8.7519C23.6531 8.61793 23.4696 8.54258 23.2782 8.54238ZM18.8104 9.12592C18.7523 8.80365 18.4618 8.54938 18.1288 8.54238H12.659V16.2422C12.6586 16.6164 12.5082 16.9752 12.2409 17.2398C11.9735 17.5044 11.611 17.6532 11.2329 17.6536H7.13843C8.79117 23.1755 16.2194 23.515 18.3938 18.2181C18.6945 17.4647 18.8399 16.6593 18.8215 15.8494V9.26993C18.8226 9.22169 18.8188 9.17345 18.8104 9.12592ZM11.2331 4.39081C11.6112 4.39114 11.9737 4.53991 12.2411 4.80446C12.5085 5.06902 12.6588 5.42774 12.6592 5.80192V6.63048C12.826 6.65573 12.9907 6.66848 13.1511 6.66848C17.6197 6.48572 17.6197 0.18298 13.1511 0.000465585C10.8936 -0.0377874 9.20827 2.28814 9.95556 4.39081H11.2331Z" fill="url(#paint0_linear_33_11)"/>
<path d="M11.9165 16.2425V5.80192C11.9163 5.62263 11.8442 5.45075 11.7161 5.32401C11.588 5.19726 11.4143 5.126 11.2331 5.12586H0.683376C0.502238 5.12606 0.328574 5.19734 0.200467 5.32408C0.0723597 5.45081 0.000267448 5.62265 0 5.80192V16.2425C0.000133827 16.4218 0.0721751 16.5937 0.200304 16.7205C0.328433 16.8474 0.502174 16.9186 0.683376 16.9188H11.2331C11.4143 16.9186 11.588 16.8473 11.7161 16.7205C11.8442 16.5937 11.9163 16.4218 11.9165 16.2425ZM9.10544 8.73164C9.10544 8.82912 9.06632 8.9226 8.99667 8.99152C8.92703 9.06045 8.83257 9.09917 8.73407 9.09917H6.99645V14.4148C6.99645 14.5123 6.95733 14.6058 6.88768 14.6747C6.81804 14.7436 6.72357 14.7824 6.62508 14.7824H5.28157C5.18308 14.7824 5.08862 14.7436 5.01897 14.6747C4.94933 14.6058 4.9102 14.5123 4.9102 14.4148V9.09917H3.18243C3.08394 9.09917 2.98948 9.06045 2.91983 8.99152C2.85019 8.9226 2.81106 8.82912 2.81106 8.73164V7.62906C2.81106 7.42604 2.97729 7.26153 3.18243 7.26153H8.73407C8.93921 7.26153 9.10544 7.42604 9.10544 7.62906V8.73164Z" fill="url(#paint1_linear_33_11)"/>
<defs>
<linearGradient id="paint0_linear_33_11" x1="1.87502" y1="2.07536" x2="19.6739" y2="23.0679" gradientUnits="userSpaceOnUse">
<stop stop-color="#517ED9"/>
<stop offset="1"/>
</linearGradient>
<linearGradient id="paint1_linear_33_11" x1="1.87502" y1="2.07536" x2="19.6739" y2="23.0679" gradientUnits="userSpaceOnUse">
<stop stop-color="#517ED9"/>
<stop offset="1"/>
</linearGradient>
</defs>
</svg>
